<?xml version="1.0" standalone="no"?>
<!DOCTYPE svg PUBLIC "-//W3C//DTD SVG 20010904//EN"
 "http://www.w3.org/TR/2001/REC-SVG-20010904/DTD/svg10.dtd">
<svg version="1.0" xmlns="http://www.w3.org/2000/svg"
 width="196.000000pt" height="196.000000pt" viewBox="0 0 196.000000 196.000000"
 preserveAspectRatio="xMidYMid meet">
<metadata>
Created by potrace 1.14, written by Peter Selinger 2001-2017
</metadata>
<g transform="translate(0.000000,196.000000) scale(0.100000,-0.100000)"
fill="#000000" stroke="none">
<path d="M798 1940 c-48 -10 -91 -21 -97 -24 -17 -11 -6 -302 14 -371 36 -125
112 -229 216 -296 l49 -31 46 27 c104 61 195 188 228 315 8 33 14 114 15 203
l2 147 -26 10 c-14 5 -40 12 -57 15 -17 3 -35 8 -40 11 -5 4 -66 8 -136 9 -96
3 -149 -1 -214 -15z"/>
<path d="M403 1748 c-79 -84 -106 -211 -74 -348 22 -96 96 -226 176 -311 48
-51 31 -49 -41 4 -124 92 -213 213 -275 374 l-11 28 -13 -26 c-25 -47 -33
-131 -18 -189 34 -133 129 -239 319 -357 31 -19 -63 15 -119 44 -76 38 -131
78 -207 150 -38 35 -71 59 -74 54 -11 -16 5 -103 25 -142 40 -79 162 -168 287
-210 35 -12 62 -23 60 -25 -6 -5 -129 25 -188 47 -30 11 -84 35 -121 54 l-67
34 4 -26 c17 -95 126 -180 263 -206 34 -6 61 -15 61 -19 0 -12 -120 1 -219 23
-50 11 -57 8 -42 -19 34 -64 129 -108 249 -116 34 -2 65 -6 68 -9 3 -3 -25 -8
-63 -12 -37 -4 -75 -9 -83 -11 -8 -1 -33 -3 -54 -3 l-39 -1 19 -21 c51 -56
153 -76 264 -50 24 5 46 9 47 7 2 -2 -36 -18 -84 -35 -143 -52 -133 -45 -95
-65 62 -32 138 -28 223 13 59 29 38 8 -46 -45 -41 -26 -75 -51 -75 -55 0 -9
37 -19 72 -19 36 0 104 27 148 59 l35 25 -25 -29 c-14 -17 -42 -47 -64 -68
-28 -27 -36 -41 -28 -49 12 -12 114 -16 153 -5 23 6 28 3 39 -23 7 -18 37 -48
69 -70 31 -22 65 -53 74 -70 21 -35 30 -36 90 -11 62 27 122 83 144 136 16 40
21 43 43 37 42 -11 139 -7 152 7 11 10 10 15 -2 25 -8 6 -37 36 -65 65 l-50
52 59 -35 c33 -20 74 -38 91 -42 30 -5 104 1 113 11 2 2 -22 21 -54 41 -75 47
-117 80 -89 69 71 -28 105 -38 139 -40 47 -3 100 10 115 29 10 12 0 18 -56 37
-125 41 -188 77 -82 46 50 -14 135 -13 182 2 29 10 93 59 85 66 -2 1 -34 5
-73 8 -155 13 -222 32 -112 33 115 0 194 28 248 87 35 38 38 59 7 52 -84 -19
-124 -24 -208 -29 -52 -2 -84 -2 -70 0 226 41 324 104 353 225 l7 26 -88 -43
c-87 -42 -233 -89 -255 -81 -7 2 6 10 28 17 173 56 301 176 312 293 3 30 1 57
-4 60 -5 3 -32 -17 -59 -45 -64 -67 -138 -121 -221 -162 -101 -50 -126 -53
-57 -7 119 79 209 181 248 281 23 58 24 162 1 215 l-17 40 -43 -92 c-64 -137
-120 -210 -225 -294 -97 -78 -108 -78 -45 -3 107 128 174 284 175 405 0 87
-57 225 -107 255 -17 10 -18 4 -19 -90 -4 -239 -110 -458 -290 -597 l-53 -41
53 -52 c116 -117 146 -276 77 -421 -26 -56 -85 -125 -123 -146 -14 -7 -21 3
-44 62 -34 90 -50 148 -49 174 2 40 24 65 65 71 35 6 38 9 29 25 -17 33 -65
51 -154 60 -11 1 3 7 30 13 l50 13 -35 21 c-31 19 -44 21 -120 15 -47 -3 -109
-6 -137 -5 -36 0 -53 -4 -53 -12 0 -15 32 -50 66 -73 25 -16 26 -19 19 -86 -6
-70 -46 -243 -63 -273 -8 -15 -16 -11 -59 29 -160 150 -155 402 11 549 17 15
35 28 39 28 5 0 -15 19 -45 42 -76 60 -125 114 -173 188 -91 141 -124 255
-127 443 -1 42 -2 77 -3 77 0 0 -15 -15 -32 -32z m1130 -955 c-7 -2 -19 -2
-25 0 -7 3 -2 5 12 5 14 0 19 -2 13 -5z m-1100 -120 c-7 -2 -19 -2 -25 0 -7 3
-2 5 12 5 14 0 19 -2 13 -5z m1064 -109 c-3 -3 -12 -4 -19 -1 -8 3 -5 6 6 6
11 1 17 -2 13 -5z"/>
</g>
</svg>
